<svg xmlns="http://www.w3.org/2000/svg" version="1.1" width="302" height="313">
<path d="M 2.878906 130.319336 L 2.878906 123.412109 L 6.729980 123.412109 L 6.729980 124.335938 L 3.738281 124.335938 L 3.738281 130.319336 Z " fill="rgb(0, 0, 0)" fill-opacity="1.000000" />
<path d="M 2.878906 143.319336 L 2.878906 129.300781 L 3.738281 129.300781 L 3.738281 143.319336 Z " fill="rgb(0, 0, 0)" fill-opacity="1.000000" />
<path d="M 2.878906 150.335938 L 2.878906 142.300781 L 3.738281 142.300781 L 3.738281 149.412109 L 6.729980 149.412109 L 6.729980 150.335938 Z " fill="rgb(0, 0, 0)" fill-opacity="1.000000" />
<path d="M 23.878906 169.319336 L 23.878906 155.300781 L 24.738281 155.300781 L 24.738281 169.319336 Z " fill="rgb(0, 0, 0)" fill-opacity="1.000000" />
<path d="M 23.878906 176.335938 L 23.878906 168.300781 L 24.738281 168.300781 L 24.738281 175.412109 L 27.729980 175.412109 L 27.729980 176.335938 Z " fill="rgb(0, 0, 0)" fill-opacity="1.000000" />
<path d="M 65.878906 221.319336 L 65.878906 214.412109 L 69.729980 214.412109 L 69.729980 215.335938 L 66.738281 215.335938 L 66.738281 221.319336 Z " fill="rgb(0, 0, 0)" fill-opacity="1.000000" />
<path d="M 65.878906 234.319336 L 65.878906 220.300781 L 66.738281 220.300781 L 66.738281 234.319336 Z " fill="rgb(0, 0, 0)" fill-opacity="1.000000" />
<path d="M 65.878906 241.335938 L 65.878906 233.300781 L 66.738281 233.300781 L 66.738281 240.412109 L 69.729980 240.412109 L 69.729980 241.335938 Z " fill="rgb(0, 0, 0)" fill-opacity="1.000000" />
<path d="M 100.878906 286.319336 L 100.878906 279.412109 L 104.729980 279.412109 L 104.729980 280.335938 L 101.738281 280.335938 L 101.738281 286.319336 Z " fill="rgb(0, 0, 0)" fill-opacity="1.000000" />
<path d="M 100.878906 299.319336 L 100.878906 285.300781 L 101.738281 285.300781 L 101.738281 299.319336 Z " fill="rgb(0, 0, 0)" fill-opacity="1.000000" />
<path d="M 100.878906 306.335938 L 100.878906 298.300781 L 101.738281 298.300781 L 101.738281 305.412109 L 104.729980 305.412109 L 104.729980 306.335938 Z " fill="rgb(0, 0, 0)" fill-opacity="1.000000" />
<path d="M 104.892578 306.335938 L 104.892578 305.412109 L 111.729980 305.412109 L 111.729980 306.335938 Z " fill="rgb(0, 0, 0)" fill-opacity="1.000000" />
<path d="M 111.892578 306.335938 L 111.892578 305.412109 L 118.729980 305.412109 L 118.729980 306.335938 Z " fill="rgb(0, 0, 0)" fill-opacity="1.000000" />
<path d="M 118.892578 306.335938 L 118.892578 305.412109 L 125.729980 305.412109 L 125.729980 306.335938 Z " fill="rgb(0, 0, 0)" fill-opacity="1.000000" />
<path d="M 125.892578 306.335938 L 125.892578 305.412109 L 132.729980 305.412109 L 132.729980 306.335938 Z " fill="rgb(0, 0, 0)" fill-opacity="1.000000" />
<path d="M 132.892578 306.335938 L 132.892578 305.412109 L 139.729980 305.412109 L 139.729980 306.335938 Z " fill="rgb(0, 0, 0)" fill-opacity="1.000000" />
<path d="M 139.892578 306.335938 L 139.892578 305.412109 L 146.729980 305.412109 L 146.729980 306.335938 Z " fill="rgb(0, 0, 0)" fill-opacity="1.000000" />
<path d="M 146.892578 306.335938 L 146.892578 305.412109 L 153.729980 305.412109 L 153.729980 306.335938 Z " fill="rgb(0, 0, 0)" fill-opacity="1.000000" />
<path d="M 153.892578 306.335938 L 153.892578 305.412109 L 160.729980 305.412109 L 160.729980 306.335938 Z " fill="rgb(0, 0, 0)" fill-opacity="1.000000" />
<path d="M 160.892578 306.335938 L 160.892578 305.412109 L 163.878906 305.412109 L 163.878906 298.300781 L 164.738281 298.300781 L 164.738281 306.335938 Z " fill="rgb(0, 0, 0)" fill-opacity="1.000000" />
<path d="M 117.435547 288.254883 L 117.435547 289.355957 Q 116.941406 289.039062 116.444580 288.877930 Q 115.947754 288.716797 115.442871 288.716797 Q 114.674805 288.716797 114.229004 289.073975 Q 113.783203 289.431152 113.783203 290.038086 Q 113.783203 290.569824 114.075928 290.849121 Q 114.368652 291.128418 115.168945 291.316406 L 115.738281 291.445312 Q 116.866211 291.708496 117.381836 292.272461 Q 117.897461 292.836426 117.897461 293.808594 Q 117.897461 294.952637 117.188477 295.554199 Q 116.479492 296.155762 115.125977 296.155762 Q 114.562012 296.155762 113.992676 296.034912 Q 113.423340 295.914062 112.848633 295.672363 L 112.848633 294.517578 Q 113.466309 294.909668 114.016846 295.092285 Q 114.567383 295.274902 115.125977 295.274902 Q 115.947754 295.274902 116.404297 294.906982 Q 116.860840 294.539062 116.860840 293.878418 Q 116.860840 293.276855 116.546631 292.959961 Q 116.232422 292.643066 115.453613 292.471191 L 114.873535 292.336914 Q 113.756348 292.084473 113.251465 291.574219 Q 112.746582 291.063965 112.746582 290.204590 Q 112.746582 289.130371 113.468994 288.483154 Q 114.191406 287.835938 115.389160 287.835938 Q 115.851074 287.835938 116.361328 287.940674 Q 116.871582 288.045410 117.435547 288.254883 Z " fill="rgb(0, 0, 0)" fill-opacity="1.000000" />
<path d="M 122.297852 288.276367 L 122.297852 289.984375 L 124.542969 289.984375 L 124.542969 290.752441 L 122.297852 290.752441 L 122.297852 294.018066 Q 122.297852 294.684082 122.550293 294.947266 Q 122.802734 295.210449 123.431152 295.210449 L 124.542969 295.210449 L 124.542969 296.000000 L 123.334473 296.000000 Q 122.222656 296.000000 121.766113 295.554199 Q 121.309570 295.108398 121.309570 294.018066 L 121.309570 290.752441 L 119.703613 290.752441 L 119.703613 289.984375 L 121.309570 289.984375 L 121.309570 288.276367 Z " fill="rgb(0, 0, 0)" fill-opacity="1.000000" />
<path d="M 129.770508 292.976074 L 129.442871 292.976074 Q 128.578125 292.976074 128.140381 293.279541 Q 127.702637 293.583008 127.702637 294.184570 Q 127.702637 294.727051 128.030273 295.027832 Q 128.357910 295.328613 128.937988 295.328613 Q 129.754395 295.328613 130.221680 294.761963 Q 130.688965 294.195312 130.694336 293.196289 L 130.694336 292.976074 Z M 131.687988 292.567871 L 131.687988 296.000000 L 130.694336 296.000000 L 130.694336 295.108398 Q 130.377441 295.645508 129.896729 295.900635 Q 129.416016 296.155762 128.728516 296.155762 Q 127.810059 296.155762 127.262207 295.637451 Q 126.714355 295.119141 126.714355 294.249023 Q 126.714355 293.244629 127.388428 292.723633 Q 128.062500 292.202637 129.367676 292.202637 L 130.694336 292.202637 L 130.694336 292.046875 Q 130.688965 291.327148 130.329102 291.002197 Q 129.969238 290.677246 129.179688 290.677246 Q 128.674805 290.677246 128.159180 290.822266 Q 127.643555 290.967285 127.154785 291.246582 L 127.154785 290.258301 Q 127.702637 290.048828 128.204834 289.944092 Q 128.707031 289.839355 129.179688 289.839355 Q 129.926270 289.839355 130.455322 290.059570 Q 130.984375 290.279785 131.312012 290.720215 Q 131.516113 290.988770 131.602051 291.383545 Q 131.687988 291.778320 131.687988 292.567871 Z " fill="rgb(0, 0, 0)" fill-opacity="1.000000" />
<path d="M 137.608398 292.943848 Q 137.608398 291.832031 137.245850 291.254639 Q 136.883301 290.677246 136.190430 290.677246 Q 135.465332 290.677246 135.083984 291.254639 Q 134.702637 291.832031 134.702637 292.943848 Q 134.702637 294.055664 135.086670 294.638428 Q 135.470703 295.221191 136.201172 295.221191 Q 136.883301 295.221191 137.245850 294.635742 Q 137.608398 294.050293 137.608398 292.943848 Z M 138.596680 295.613281 Q 138.596680 296.966797 137.957520 297.665039 Q 137.318359 298.363281 136.077637 298.363281 Q 135.669434 298.363281 135.223633 298.288086 Q 134.777832 298.212891 134.332031 298.067871 L 134.332031 297.090332 Q 134.858398 297.337402 135.288086 297.455566 Q 135.717773 297.573730 136.077637 297.573730 Q 136.877930 297.573730 137.243164 297.138672 Q 137.608398 296.703613 137.608398 295.758301 L 137.608398 295.715332 L 137.608398 295.043945 Q 137.372070 295.548828 136.963867 295.795898 Q 136.555664 296.042969 135.970215 296.042969 Q 134.917480 296.042969 134.289062 295.199707 Q 133.660645 294.356445 133.660645 292.943848 Q 133.660645 291.525879 134.289062 290.682617 Q 134.917480 289.839355 135.970215 289.839355 Q 136.550293 289.839355 136.953125 290.070312 Q 137.355957 290.301270 137.608398 290.784668 L 137.608398 290.005859 L 138.596680 290.005859 Z " fill="rgb(0, 0, 0)" fill-opacity="1.000000" />
<path d="M 146.015625 292.498047 L 146.015625 292.981445 L 141.734863 292.981445 L 141.734863 293.013672 Q 141.691895 294.243652 142.204834 294.780762 Q 142.717773 295.317871 143.652344 295.317871 Q 144.125000 295.317871 144.640625 295.167480 Q 145.156250 295.017090 145.741699 294.710938 L 145.741699 295.693848 Q 145.177734 295.924805 144.654053 296.040283 Q 144.130371 296.155762 143.641602 296.155762 Q 142.239746 296.155762 141.450195 295.315186 Q 140.660645 294.474609 140.660645 292.997559 Q 140.660645 291.558105 141.434082 290.698730 Q 142.207520 289.839355 143.496582 289.839355 Q 144.645996 289.839355 145.309326 290.618164 Q 145.972656 291.396973 146.015625 292.498047 Z M 145.027344 292.208008 Q 144.962891 291.584961 144.573486 291.131104 Q 144.184082 290.677246 143.453613 290.677246 Q 142.739258 290.677246 142.277344 291.149902 Q 141.815430 291.622559 141.772461 292.213379 Z " fill="rgb(0, 0, 0)" fill-opacity="1.000000" />
<path d="M 163.878906 299.319336 L 163.878906 285.300781 L 164.738281 285.300781 L 164.738281 299.319336 Z " fill="rgb(0, 0, 0)" fill-opacity="1.000000" />
<path d="M 104.892578 280.335938 L 104.892578 279.412109 L 111.729980 279.412109 L 111.729980 280.335938 Z " fill="rgb(0, 0, 0)" fill-opacity="1.000000" />
<path d="M 111.892578 280.335938 L 111.892578 279.412109 L 118.729980 279.412109 L 118.729980 280.335938 Z " fill="rgb(0, 0, 0)" fill-opacity="1.000000" />
<path d="M 118.892578 280.335938 L 118.892578 279.412109 L 125.729980 279.412109 L 125.729980 280.335938 Z " fill="rgb(0, 0, 0)" fill-opacity="1.000000" />
<path d="M 125.892578 280.335938 L 125.892578 279.412109 L 132.729980 279.412109 L 132.729980 280.335938 Z " fill="rgb(0, 0, 0)" fill-opacity="1.000000" />
<path d="M 132.892578 280.335938 L 132.892578 279.412109 L 139.729980 279.412109 L 139.729980 280.335938 Z " fill="rgb(0, 0, 0)" fill-opacity="1.000000" />
<path d="M 139.892578 280.335938 L 139.892578 279.412109 L 146.729980 279.412109 L 146.729980 280.335938 Z " fill="rgb(0, 0, 0)" fill-opacity="1.000000" />
<path d="M 146.892578 280.335938 L 146.892578 279.412109 L 153.729980 279.412109 L 153.729980 280.335938 Z " fill="rgb(0, 0, 0)" fill-opacity="1.000000" />
<path d="M 153.892578 280.335938 L 153.892578 279.412109 L 160.729980 279.412109 L 160.729980 280.335938 Z " fill="rgb(0, 0, 0)" fill-opacity="1.000000" />
<path d="M 163.878906 286.319336 L 163.878906 280.335938 L 160.892578 280.335938 L 160.892578 279.412109 L 164.738281 279.412109 L 164.738281 286.319336 Z " fill="rgb(0, 0, 0)" fill-opacity="1.000000" />
<path d="M 128.878906 260.319336 L 128.878906 246.300781 L 129.738281 246.300781 L 129.738281 260.319336 Z " fill="rgb(0, 0, 0)" fill-opacity="1.000000" />
<path d="M 129.308594 270.418945 L 126.032227 263.866211 L 132.590332 263.866211 Z " fill="rgb(0, 0, 0)" fill-opacity="1.000000" />
<path d="M 69.892578 241.335938 L 69.892578 240.412109 L 76.729980 240.412109 L 76.729980 241.335938 Z " fill="rgb(0, 0, 0)" fill-opacity="1.000000" />
<path d="M 76.892578 241.335938 L 76.892578 240.412109 L 83.729980 240.412109 L 83.729980 241.335938 Z " fill="rgb(0, 0, 0)" fill-opacity="1.000000" />
<path d="M 83.892578 241.335938 L 83.892578 240.412109 L 90.729980 240.412109 L 90.729980 241.335938 Z " fill="rgb(0, 0, 0)" fill-opacity="1.000000" />
<path d="M 90.892578 241.335938 L 90.892578 240.412109 L 97.729980 240.412109 L 97.729980 241.335938 Z " fill="rgb(0, 0, 0)" fill-opacity="1.000000" />
<path d="M 97.892578 241.335938 L 97.892578 240.412109 L 104.729980 240.412109 L 104.729980 241.335938 Z " fill="rgb(0, 0, 0)" fill-opacity="1.000000" />
<path d="M 104.892578 241.335938 L 104.892578 240.412109 L 111.729980 240.412109 L 111.729980 241.335938 Z " fill="rgb(0, 0, 0)" fill-opacity="1.000000" />
<path d="M 111.892578 241.335938 L 111.892578 240.412109 L 118.729980 240.412109 L 118.729980 241.335938 Z " fill="rgb(0, 0, 0)" fill-opacity="1.000000" />
<path d="M 118.892578 241.335938 L 118.892578 240.412109 L 125.729980 240.412109 L 125.729980 241.335938 Z " fill="rgb(0, 0, 0)" fill-opacity="1.000000" />
<path d="M 128.878906 247.319336 L 128.878906 241.335938 L 125.892578 241.335938 L 125.892578 240.412109 L 132.729980 240.412109 L 132.729980 241.335938 L 129.738281 241.335938 L 129.738281 247.319336 Z " fill="rgb(0, 0, 0)" fill-opacity="1.000000" />
<path d="M 132.892578 241.335938 L 132.892578 240.412109 L 139.729980 240.412109 L 139.729980 241.335938 Z " fill="rgb(0, 0, 0)" fill-opacity="1.000000" />
<path d="M 139.892578 241.335938 L 139.892578 240.412109 L 146.729980 240.412109 L 146.729980 241.335938 Z " fill="rgb(0, 0, 0)" fill-opacity="1.000000" />
<path d="M 146.892578 241.335938 L 146.892578 240.412109 L 153.729980 240.412109 L 153.729980 241.335938 Z " fill="rgb(0, 0, 0)" fill-opacity="1.000000" />
<path d="M 153.892578 241.335938 L 153.892578 240.412109 L 160.729980 240.412109 L 160.729980 241.335938 Z " fill="rgb(0, 0, 0)" fill-opacity="1.000000" />
<path d="M 160.892578 241.335938 L 160.892578 240.412109 L 167.729980 240.412109 L 167.729980 241.335938 Z " fill="rgb(0, 0, 0)" fill-opacity="1.000000" />
<path d="M 167.892578 241.335938 L 167.892578 240.412109 L 174.729980 240.412109 L 174.729980 241.335938 Z " fill="rgb(0, 0, 0)" fill-opacity="1.000000" />
<path d="M 174.892578 241.335938 L 174.892578 240.412109 L 181.729980 240.412109 L 181.729980 241.335938 Z " fill="rgb(0, 0, 0)" fill-opacity="1.000000" />
<path d="M 181.892578 241.335938 L 181.892578 240.412109 L 188.729980 240.412109 L 188.729980 241.335938 Z " fill="rgb(0, 0, 0)" fill-opacity="1.000000" />
<path d="M 188.892578 241.335938 L 188.892578 240.412109 L 191.878906 240.412109 L 191.878906 233.300781 L 192.738281 233.300781 L 192.738281 241.335938 Z " fill="rgb(0, 0, 0)" fill-opacity="1.000000" />
<path d="M 79.014160 230.242676 L 79.014160 233.288086 L 78.020508 233.288086 L 78.020508 224.984375 L 79.014160 224.984375 L 79.014160 225.752441 Q 79.261230 225.306641 79.672119 225.072998 Q 80.083008 224.839355 80.620117 224.839355 Q 81.710449 224.839355 82.330811 225.682617 Q 82.951172 226.525879 82.951172 228.019043 Q 82.951172 229.485352 82.328125 230.320557 Q 81.705078 231.155762 80.620117 231.155762 Q 80.072266 231.155762 79.661377 230.922119 Q 79.250488 230.688477 79.014160 230.242676 Z M 81.914551 227.997559 Q 81.914551 226.848145 81.552002 226.262695 Q 81.189453 225.677246 80.475098 225.677246 Q 79.755371 225.677246 79.384766 226.265381 Q 79.014160 226.853516 79.014160 227.997559 Q 79.014160 229.136230 79.384766 229.727051 Q 79.755371 230.317871 80.475098 230.317871 Q 81.189453 230.317871 81.552002 229.732422 Q 81.914551 229.146973 81.914551 227.997559 Z " fill="rgb(0, 0, 0)" fill-opacity="1.000000" />
<path d="M 87.770508 227.976074 L 87.442871 227.976074 Q 86.578125 227.976074 86.140381 228.279541 Q 85.702637 228.583008 85.702637 229.184570 Q 85.702637 229.727051 86.030273 230.027832 Q 86.357910 230.328613 86.937988 230.328613 Q 87.754395 230.328613 88.221680 229.761963 Q 88.688965 229.195312 88.694336 228.196289 L 88.694336 227.976074 Z M 89.687988 227.567871 L 89.687988 231.000000 L 88.694336 231.000000 L 88.694336 230.108398 Q 88.377441 230.645508 87.896729 230.900635 Q 87.416016 231.155762 86.728516 231.155762 Q 85.810059 231.155762 85.262207 230.637451 Q 84.714355 230.119141 84.714355 229.249023 Q 84.714355 228.244629 85.388428 227.723633 Q 86.062500 227.202637 87.367676 227.202637 L 88.694336 227.202637 L 88.694336 227.046875 Q 88.688965 226.327148 88.329102 226.002197 Q 87.969238 225.677246 87.179688 225.677246 Q 86.674805 225.677246 86.159180 225.822266 Q 85.643555 225.967285 85.154785 226.246582 L 85.154785 225.258301 Q 85.702637 225.048828 86.204834 224.944092 Q 86.707031 224.839355 87.179688 224.839355 Q 87.926270 224.839355 88.455322 225.059570 Q 88.984375 225.279785 89.312012 225.720215 Q 89.516113 225.988770 89.602051 226.383545 Q 89.687988 226.778320 89.687988 227.567871 Z " fill="rgb(0, 0, 0)" fill-opacity="1.000000" />
<path d="M 96.698730 230.693848 Q 96.301270 230.924805 95.879639 231.040283 Q 95.458008 231.155762 95.017578 231.155762 Q 93.621094 231.155762 92.834229 230.317871 Q 92.047363 229.479980 92.047363 227.997559 Q 92.047363 226.515137 92.834229 225.677246 Q 93.621094 224.839355 95.017578 224.839355 Q 95.452637 224.839355 95.866211 224.952148 Q 96.279785 225.064941 96.698730 225.301270 L 96.698730 226.337891 Q 96.306641 225.988770 95.911865 225.833008 Q 95.517090 225.677246 95.017578 225.677246 Q 94.088379 225.677246 93.588867 226.278809 Q 93.089355 226.880371 93.089355 227.997559 Q 93.089355 229.109375 93.591553 229.713623 Q 94.093750 230.317871 95.017578 230.317871 Q 95.533203 230.317871 95.941406 230.159424 Q 96.349609 230.000977 96.698730 229.667969 Z " fill="rgb(0, 0, 0)" fill-opacity="1.000000" />
<path d="M 99.697266 225.005859 L 102.227051 225.005859 L 102.227051 230.231934 L 104.187500 230.231934 L 104.187500 231.000000 L 99.278320 231.000000 L 99.278320 230.231934 L 101.238770 230.231934 L 101.238770 225.773926 L 99.697266 225.773926 Z M 101.238770 222.669434 L 102.227051 222.669434 L 102.227051 223.915527 L 101.238770 223.915527 Z " fill="rgb(0, 0, 0)" fill-opacity="1.000000" />
<path d="M 110.645020 227.272461 L 110.645020 231.000000 L 109.651367 231.000000 L 109.651367 227.272461 Q 109.651367 226.461426 109.366699 226.080078 Q 109.082031 225.698730 108.475098 225.698730 Q 107.782227 225.698730 107.408936 226.190186 Q 107.035645 226.681641 107.035645 227.600098 L 107.035645 231.000000 L 106.047363 231.000000 L 106.047363 224.984375 L 107.035645 224.984375 L 107.035645 225.886719 Q 107.298828 225.371094 107.750000 225.105225 Q 108.201172 224.839355 108.818848 224.839355 Q 109.737305 224.839355 110.191162 225.443604 Q 110.645020 226.047852 110.645020 227.272461 Z " fill="rgb(0, 0, 0)" fill-opacity="1.000000" />
<path d="M 116.608398 227.943848 Q 116.608398 226.832031 116.245850 226.254639 Q 115.883301 225.677246 115.190430 225.677246 Q 114.465332 225.677246 114.083984 226.254639 Q 113.702637 226.832031 113.702637 227.943848 Q 113.702637 229.055664 114.086670 229.638428 Q 114.470703 230.221191 115.201172 230.221191 Q 115.883301 230.221191 116.245850 229.635742 Q 116.608398 229.050293 116.608398 227.943848 Z M 117.596680 230.613281 Q 117.596680 231.966797 116.957520 232.665039 Q 116.318359 233.363281 115.077637 233.363281 Q 114.669434 233.363281 114.223633 233.288086 Q 113.777832 233.212891 113.332031 233.067871 L 113.332031 232.090332 Q 113.858398 232.337402 114.288086 232.455566 Q 114.717773 232.573730 115.077637 232.573730 Q 115.877930 232.573730 116.243164 232.138672 Q 116.608398 231.703613 116.608398 230.758301 L 116.608398 230.715332 L 116.608398 230.043945 Q 116.372070 230.548828 115.963867 230.795898 Q 115.555664 231.042969 114.970215 231.042969 Q 113.917480 231.042969 113.289062 230.199707 Q 112.660645 229.356445 112.660645 227.943848 Q 112.660645 226.525879 113.289062 225.682617 Q 113.917480 224.839355 114.970215 224.839355 Q 115.550293 224.839355 115.953125 225.070312 Q 116.355957 225.301270 116.608398 225.784668 L 116.608398 225.005859 L 117.596680 225.005859 Z " fill="rgb(0, 0, 0)" fill-opacity="1.000000" />
<path d="M 131.226074 225.193848 L 131.226074 226.160645 Q 130.801758 225.913574 130.372070 225.790039 Q 129.942383 225.666504 129.496582 225.666504 Q 128.825195 225.666504 128.494873 225.884033 Q 128.164551 226.101562 128.164551 226.547363 Q 128.164551 226.950195 128.411621 227.148926 Q 128.658691 227.347656 129.641602 227.535645 L 130.039062 227.610840 Q 130.774902 227.750488 131.153564 228.169434 Q 131.532227 228.588379 131.532227 229.259766 Q 131.532227 230.151367 130.898438 230.653564 Q 130.264648 231.155762 129.136719 231.155762 Q 128.690918 231.155762 128.202148 231.061768 Q 127.713379 230.967773 127.144043 230.779785 L 127.144043 229.759277 Q 127.697266 230.043945 128.202148 230.186279 Q 128.707031 230.328613 129.158203 230.328613 Q 129.813477 230.328613 130.173340 230.062744 Q 130.533203 229.796875 130.533203 229.318848 Q 130.533203 228.631348 129.217285 228.368164 L 129.174316 228.357422 L 128.803711 228.282227 Q 127.949707 228.115723 127.557617 227.720947 Q 127.165527 227.326172 127.165527 226.644043 Q 127.165527 225.779297 127.750977 225.309326 Q 128.336426 224.839355 129.421387 224.839355 Q 129.904785 224.839355 130.350586 224.927979 Q 130.796387 225.016602 131.226074 225.193848 Z " fill="rgb(0, 0, 0)" fill-opacity="1.000000" />
<path d="M 139.015625 227.498047 L 139.015625 227.981445 L 134.734863 227.981445 L 134.734863 228.013672 Q 134.691895 229.243652 135.204834 229.780762 Q 135.717773 230.317871 136.652344 230.317871 Q 137.125000 230.317871 137.640625 230.167480 Q 138.156250 230.017090 138.741699 229.710938 L 138.741699 230.693848 Q 138.177734 230.924805 137.654053 231.040283 Q 137.130371 231.155762 136.641602 231.155762 Q 135.239746 231.155762 134.450195 230.315186 Q 133.660645 229.474609 133.660645 227.997559 Q 133.660645 226.558105 134.434082 225.698730 Q 135.207520 224.839355 136.496582 224.839355 Q 137.645996 224.839355 138.309326 225.618164 Q 138.972656 226.396973 139.015625 227.498047 Z M 138.027344 227.208008 Q 137.962891 226.584961 137.573486 226.131104 Q 137.184082 225.677246 136.453613 225.677246 Q 135.739258 225.677246 135.277344 226.149902 Q 134.815430 226.622559 134.772461 227.213379 Z " fill="rgb(0, 0, 0)" fill-opacity="1.000000" />
<path d="M 146.203613 226.225098 Q 145.886719 225.978027 145.559082 225.865234 Q 145.231445 225.752441 144.839355 225.752441 Q 143.915527 225.752441 143.426758 226.332520 Q 142.937988 226.912598 142.937988 228.008301 L 142.937988 231.000000 L 141.944336 231.000000 L 141.944336 224.984375 L 142.937988 224.984375 L 142.937988 226.160645 Q 143.185059 225.521484 143.697998 225.180420 Q 144.210938 224.839355 144.914551 224.839355 Q 145.279785 224.839355 145.596680 224.930664 Q 145.913574 225.021973 146.203613 225.215332 Z " fill="rgb(0, 0, 0)" fill-opacity="1.000000" />
<path d="M 147.537109 224.984375 L 148.562988 224.984375 L 150.308594 230.033203 L 152.059570 224.984375 L 153.085449 224.984375 L 150.947754 231.000000 L 149.674805 231.000000 Z " fill="rgb(0, 0, 0)" fill-opacity="1.000000" />
<path d="M 160.015625 227.498047 L 160.015625 227.981445 L 155.734863 227.981445 L 155.734863 228.013672 Q 155.691895 229.243652 156.204834 229.780762 Q 156.717773 230.317871 157.652344 230.317871 Q 158.125000 230.317871 158.640625 230.167480 Q 159.156250 230.017090 159.741699 229.710938 L 159.741699 230.693848 Q 159.177734 230.924805 158.654053 231.040283 Q 158.130371 231.155762 157.641602 231.155762 Q 156.239746 231.155762 155.450195 230.315186 Q 154.660645 229.474609 154.660645 227.997559 Q 154.660645 226.558105 155.434082 225.698730 Q 156.207520 224.839355 157.496582 224.839355 Q 158.645996 224.839355 159.309326 225.618164 Q 159.972656 226.396973 160.015625 227.498047 Z M 159.027344 227.208008 Q 158.962891 226.584961 158.573486 226.131104 Q 158.184082 225.677246 157.453613 225.677246 Q 156.739258 225.677246 156.277344 226.149902 Q 155.815430 226.622559 155.772461 227.213379 Z " fill="rgb(0, 0, 0)" fill-opacity="1.000000" />
<path d="M 167.203613 226.225098 Q 166.886719 225.978027 166.559082 225.865234 Q 166.231445 225.752441 165.839355 225.752441 Q 164.915527 225.752441 164.426758 226.332520 Q 163.937988 226.912598 163.937988 228.008301 L 163.937988 231.000000 L 162.944336 231.000000 L 162.944336 224.984375 L 163.937988 224.984375 L 163.937988 226.160645 Q 164.185059 225.521484 164.697998 225.180420 Q 165.210938 224.839355 165.914551 224.839355 Q 166.279785 224.839355 166.596680 224.930664 Q 166.913574 225.021973 167.203613 225.215332 Z " fill="rgb(0, 0, 0)" fill-opacity="1.000000" />
<path d="M 191.878906 234.319336 L 191.878906 220.300781 L 192.738281 220.300781 L 192.738281 234.319336 Z " fill="rgb(0, 0, 0)" fill-opacity="1.000000" />
<path d="M 69.892578 215.335938 L 69.892578 214.412109 L 76.729980 214.412109 L 76.729980 215.335938 Z " fill="rgb(0, 0, 0)" fill-opacity="1.000000" />
<path d="M 76.892578 215.335938 L 76.892578 214.412109 L 83.729980 214.412109 L 83.729980 215.335938 Z " fill="rgb(0, 0, 0)" fill-opacity="1.000000" />
<path d="M 83.892578 215.335938 L 83.892578 214.412109 L 90.729980 214.412109 L 90.729980 215.335938 Z " fill="rgb(0, 0, 0)" fill-opacity="1.000000" />
<path d="M 90.892578 215.335938 L 90.892578 214.412109 L 97.729980 214.412109 L 97.729980 215.335938 Z " fill="rgb(0, 0, 0)" fill-opacity="1.000000" />
<path d="M 97.892578 215.335938 L 97.892578 214.412109 L 104.729980 214.412109 L 104.729980 215.335938 Z " fill="rgb(0, 0, 0)" fill-opacity="1.000000" />
<path d="M 104.892578 215.335938 L 104.892578 214.412109 L 111.729980 214.412109 L 111.729980 215.335938 Z " fill="rgb(0, 0, 0)" fill-opacity="1.000000" />
<path d="M 111.892578 215.335938 L 111.892578 214.412109 L 118.729980 214.412109 L 118.729980 215.335938 Z " fill="rgb(0, 0, 0)" fill-opacity="1.000000" />
<path d="M 118.892578 215.335938 L 118.892578 214.412109 L 125.729980 214.412109 L 125.729980 215.335938 Z " fill="rgb(0, 0, 0)" fill-opacity="1.000000" />
<path d="M 125.892578 215.335938 L 125.892578 214.412109 L 132.729980 214.412109 L 132.729980 215.335938 Z " fill="rgb(0, 0, 0)" fill-opacity="1.000000" />
<path d="M 132.892578 215.335938 L 132.892578 214.412109 L 139.729980 214.412109 L 139.729980 215.335938 Z " fill="rgb(0, 0, 0)" fill-opacity="1.000000" />
<path d="M 139.892578 215.335938 L 139.892578 214.412109 L 146.729980 214.412109 L 146.729980 215.335938 Z " fill="rgb(0, 0, 0)" fill-opacity="1.000000" />
<path d="M 146.892578 215.335938 L 146.892578 214.412109 L 153.729980 214.412109 L 153.729980 215.335938 Z " fill="rgb(0, 0, 0)" fill-opacity="1.000000" />
<path d="M 153.892578 215.335938 L 153.892578 214.412109 L 160.729980 214.412109 L 160.729980 215.335938 Z " fill="rgb(0, 0, 0)" fill-opacity="1.000000" />
<path d="M 160.892578 215.335938 L 160.892578 214.412109 L 167.729980 214.412109 L 167.729980 215.335938 Z " fill="rgb(0, 0, 0)" fill-opacity="1.000000" />
<path d="M 167.892578 215.335938 L 167.892578 214.412109 L 174.729980 214.412109 L 174.729980 215.335938 Z " fill="rgb(0, 0, 0)" fill-opacity="1.000000" />
<path d="M 174.892578 215.335938 L 174.892578 214.412109 L 181.729980 214.412109 L 181.729980 215.335938 Z " fill="rgb(0, 0, 0)" fill-opacity="1.000000" />
<path d="M 181.892578 215.335938 L 181.892578 214.412109 L 188.729980 214.412109 L 188.729980 215.335938 Z " fill="rgb(0, 0, 0)" fill-opacity="1.000000" />
<path d="M 191.878906 221.319336 L 191.878906 215.335938 L 188.892578 215.335938 L 188.892578 214.412109 L 192.738281 214.412109 L 192.738281 221.319336 Z " fill="rgb(0, 0, 0)" fill-opacity="1.000000" />
<path d="M 107.878906 195.319336 L 107.878906 181.300781 L 108.738281 181.300781 L 108.738281 195.319336 Z " fill="rgb(0, 0, 0)" fill-opacity="1.000000" />
<path d="M 108.308594 205.418945 L 105.032227 198.866211 L 111.590332 198.866211 Z " fill="rgb(0, 0, 0)" fill-opacity="1.000000" />
<path d="M 129.308594 205.418945 L 126.032227 198.866211 L 132.590332 198.866211 Z " fill="rgb(0, 0, 0)" fill-opacity="1.000000" />
<path d="M 150.308594 205.418945 L 147.032227 198.866211 L 153.590332 198.866211 Z " fill="rgb(0, 0, 0)" fill-opacity="1.000000" />
<path d="M 128.878906 195.319336 L 128.878906 181.300781 L 129.738281 181.300781 L 129.738281 195.319336 Z " fill="rgb(0, 0, 0)" fill-opacity="1.000000" />
<path d="M 149.878906 195.319336 L 149.878906 181.300781 L 150.738281 181.300781 L 150.738281 195.319336 Z " fill="rgb(0, 0, 0)" fill-opacity="1.000000" />
<path d="M 213.630859 186.596680 Q 213.813477 186.209961 214.095459 186.024658 Q 214.377441 185.839355 214.774902 185.839355 Q 215.500000 185.839355 215.798096 186.400635 Q 216.096191 186.961914 216.096191 188.514160 L 216.096191 192.000000 L 215.193848 192.000000 L 215.193848 188.557129 Q 215.193848 187.284180 215.051514 186.975342 Q 214.909180 186.666504 214.533203 186.666504 Q 214.103516 186.666504 213.945068 186.996826 Q 213.786621 187.327148 213.786621 188.557129 L 213.786621 192.000000 L 212.884277 192.000000 L 212.884277 188.557129 Q 212.884277 187.268066 212.731201 186.967285 Q 212.578125 186.666504 212.180664 186.666504 Q 211.788574 186.666504 211.635498 186.996826 Q 211.482422 187.327148 211.482422 188.557129 L 211.482422 192.000000 L 210.585449 192.000000 L 210.585449 185.984375 L 211.482422 185.984375 L 211.482422 186.500000 Q 211.659668 186.177734 211.925537 186.008545 Q 212.191406 185.839355 212.529785 185.839355 Q 212.937988 185.839355 213.209229 186.027344 Q 213.480469 186.215332 213.630859 186.596680 Z " fill="rgb(0, 0, 0)" fill-opacity="1.000000" />
<path d="M 220.770508 188.976074 L 220.442871 188.976074 Q 219.578125 188.976074 219.140381 189.279541 Q 218.702637 189.583008 218.702637 190.184570 Q 218.702637 190.727051 219.030273 191.027832 Q 219.357910 191.328613 219.937988 191.328613 Q 220.754395 191.328613 221.221680 190.761963 Q 221.688965 190.195312 221.694336 189.196289 L 221.694336 188.976074 Z M 222.687988 188.567871 L 222.687988 192.000000 L 221.694336 192.000000 L 221.694336 191.108398 Q 221.377441 191.645508 220.896729 191.900635 Q 220.416016 192.155762 219.728516 192.155762 Q 218.810059 192.155762 218.262207 191.637451 Q 217.714355 191.119141 217.714355 190.249023 Q 217.714355 189.244629 218.388428 188.723633 Q 219.062500 188.202637 220.367676 188.202637 L 221.694336 188.202637 L 221.694336 188.046875 Q 221.688965 187.327148 221.329102 187.002197 Q 220.969238 186.677246 220.179688 186.677246 Q 219.674805 186.677246 219.159180 186.822266 Q 218.643555 186.967285 218.154785 187.246582 L 218.154785 186.258301 Q 218.702637 186.048828 219.204834 185.944092 Q 219.707031 185.839355 220.179688 185.839355 Q 220.926270 185.839355 221.455322 186.059570 Q 221.984375 186.279785 222.312012 186.720215 Q 222.516113 186.988770 222.602051 187.383545 Q 222.687988 187.778320 222.687988 188.567871 Z " fill="rgb(0, 0, 0)" fill-opacity="1.000000" />
<path d="M 229.645020 188.272461 L 229.645020 192.000000 L 228.651367 192.000000 L 228.651367 188.272461 Q 228.651367 187.461426 228.366699 187.080078 Q 228.082031 186.698730 227.475098 186.698730 Q 226.782227 186.698730 226.408936 187.190186 Q 226.035645 187.681641 226.035645 188.600098 L 226.035645 192.000000 L 225.047363 192.000000 L 225.047363 185.984375 L 226.035645 185.984375 L 226.035645 186.886719 Q 226.298828 186.371094 226.750000 186.105225 Q 227.201172 185.839355 227.818848 185.839355 Q 228.737305 185.839355 229.191162 186.443604 Q 229.645020 187.047852 229.645020 188.272461 Z " fill="rgb(0, 0, 0)" fill-opacity="1.000000" />
<path d="M 235.608398 190.066406 Q 235.361328 190.694824 234.979980 191.720703 Q 234.448242 193.138672 234.265625 193.450195 Q 234.018555 193.869141 233.647949 194.078613 Q 233.277344 194.288086 232.783203 194.288086 L 231.988281 194.288086 L 231.988281 193.460938 L 232.573730 193.460938 Q 233.008789 193.460938 233.255859 193.208496 Q 233.502930 192.956055 233.884277 191.903320 L 231.558594 185.984375 L 232.605957 185.984375 L 234.389160 190.689453 L 236.145508 185.984375 L 237.192871 185.984375 Z " fill="rgb(0, 0, 0)" fill-opacity="1.000000" />
<path d="M 248.297852 184.276367 L 248.297852 185.984375 L 250.542969 185.984375 L 250.542969 186.752441 L 248.297852 186.752441 L 248.297852 190.018066 Q 248.297852 190.684082 248.550293 190.947266 Q 248.802734 191.210449 249.431152 191.210449 L 250.542969 191.210449 L 250.542969 192.000000 L 249.334473 192.000000 Q 248.222656 192.000000 247.766113 191.554199 Q 247.309570 191.108398 247.309570 190.018066 L 247.309570 186.752441 L 245.703613 186.752441 L 245.703613 185.984375 L 247.309570 185.984375 L 247.309570 184.276367 Z " fill="rgb(0, 0, 0)" fill-opacity="1.000000" />
<path d="M 255.308594 186.677246 Q 254.556641 186.677246 254.169922 187.262695 Q 253.783203 187.848145 253.783203 188.997559 Q 253.783203 190.141602 254.169922 190.729736 Q 254.556641 191.317871 255.308594 191.317871 Q 256.065918 191.317871 256.452637 190.729736 Q 256.839355 190.141602 256.839355 188.997559 Q 256.839355 187.848145 256.452637 187.262695 Q 256.065918 186.677246 255.308594 186.677246 Z M 255.308594 185.839355 Q 256.560059 185.839355 257.223389 186.650391 Q 257.886719 187.461426 257.886719 188.997559 Q 257.886719 190.539062 257.226074 191.347412 Q 256.565430 192.155762 255.308594 192.155762 Q 254.057129 192.155762 253.396484 191.347412 Q 252.735840 190.539062 252.735840 188.997559 Q 252.735840 187.461426 253.396484 186.650391 Q 254.057129 185.839355 255.308594 185.839355 Z " fill="rgb(0, 0, 0)" fill-opacity="1.000000" />
<path d="M 269.308594 186.677246 Q 268.556641 186.677246 268.169922 187.262695 Q 267.783203 187.848145 267.783203 188.997559 Q 267.783203 190.141602 268.169922 190.729736 Q 268.556641 191.317871 269.308594 191.317871 Q 270.065918 191.317871 270.452637 190.729736 Q 270.839355 190.141602 270.839355 188.997559 Q 270.839355 187.848145 270.452637 187.262695 Q 270.065918 186.677246 269.308594 186.677246 Z M 269.308594 185.839355 Q 270.560059 185.839355 271.223389 186.650391 Q 271.886719 187.461426 271.886719 188.997559 Q 271.886719 190.539062 271.226074 191.347412 Q 270.565430 192.155762 269.308594 192.155762 Q 268.057129 192.155762 267.396484 191.347412 Q 266.735840 190.539062 266.735840 188.997559 Q 266.735840 187.461426 267.396484 186.650391 Q 268.057129 185.839355 269.308594 185.839355 Z " fill="rgb(0, 0, 0)" fill-opacity="1.000000" />
<path d="M 278.645020 188.272461 L 278.645020 192.000000 L 277.651367 192.000000 L 277.651367 188.272461 Q 277.651367 187.461426 277.366699 187.080078 Q 277.082031 186.698730 276.475098 186.698730 Q 275.782227 186.698730 275.408936 187.190186 Q 275.035645 187.681641 275.035645 188.600098 L 275.035645 192.000000 L 274.047363 192.000000 L 274.047363 185.984375 L 275.035645 185.984375 L 275.035645 186.886719 Q 275.298828 186.371094 275.750000 186.105225 Q 276.201172 185.839355 276.818848 185.839355 Q 277.737305 185.839355 278.191162 186.443604 Q 278.645020 187.047852 278.645020 188.272461 Z " fill="rgb(0, 0, 0)" fill-opacity="1.000000" />
<path d="M 286.015625 188.498047 L 286.015625 188.981445 L 281.734863 188.981445 L 281.734863 189.013672 Q 281.691895 190.243652 282.204834 190.780762 Q 282.717773 191.317871 283.652344 191.317871 Q 284.125000 191.317871 284.640625 191.167480 Q 285.156250 191.017090 285.741699 190.710938 L 285.741699 191.693848 Q 285.177734 191.924805 284.654053 192.040283 Q 284.130371 192.155762 283.641602 192.155762 Q 282.239746 192.155762 281.450195 191.315186 Q 280.660645 190.474609 280.660645 188.997559 Q 280.660645 187.558105 281.434082 186.698730 Q 282.207520 185.839355 283.496582 185.839355 Q 284.645996 185.839355 285.309326 186.618164 Q 285.972656 187.396973 286.015625 188.498047 Z M 285.027344 188.208008 Q 284.962891 187.584961 284.573486 187.131104 Q 284.184082 186.677246 283.453613 186.677246 Q 282.739258 186.677246 282.277344 187.149902 Q 281.815430 187.622559 281.772461 188.213379 Z " fill="rgb(0, 0, 0)" fill-opacity="1.000000" />
<path d="M 27.892578 176.335938 L 27.892578 175.412109 L 34.729980 175.412109 L 34.729980 176.335938 Z " fill="rgb(0, 0, 0)" fill-opacity="1.000000" />
<path d="M 34.892578 176.335938 L 34.892578 175.412109 L 41.729980 175.412109 L 41.729980 176.335938 Z " fill="rgb(0, 0, 0)" fill-opacity="1.000000" />
<path d="M 41.892578 176.335938 L 41.892578 175.412109 L 48.729980 175.412109 L 48.729980 176.335938 Z " fill="rgb(0, 0, 0)" fill-opacity="1.000000" />
<path d="M 48.892578 176.335938 L 48.892578 175.412109 L 55.729980 175.412109 L 55.729980 176.335938 Z " fill="rgb(0, 0, 0)" fill-opacity="1.000000" />
<path d="M 55.892578 176.335938 L 55.892578 175.412109 L 62.729980 175.412109 L 62.729980 176.335938 Z " fill="rgb(0, 0, 0)" fill-opacity="1.000000" />
<path d="M 62.892578 176.335938 L 62.892578 175.412109 L 69.729980 175.412109 L 69.729980 176.335938 Z " fill="rgb(0, 0, 0)" fill-opacity="1.000000" />
<path d="M 69.892578 176.335938 L 69.892578 175.412109 L 76.729980 175.412109 L 76.729980 176.335938 Z " fill="rgb(0, 0, 0)" fill-opacity="1.000000" />
<path d="M 76.892578 176.335938 L 76.892578 175.412109 L 83.729980 175.412109 L 83.729980 176.335938 Z " fill="rgb(0, 0, 0)" fill-opacity="1.000000" />
<path d="M 83.892578 176.335938 L 83.892578 175.412109 L 90.729980 175.412109 L 90.729980 176.335938 Z " fill="rgb(0, 0, 0)" fill-opacity="1.000000" />
<path d="M 90.892578 176.335938 L 90.892578 175.412109 L 97.729980 175.412109 L 97.729980 176.335938 Z " fill="rgb(0, 0, 0)" fill-opacity="1.000000" />
<path d="M 97.892578 176.335938 L 97.892578 175.412109 L 104.729980 175.412109 L 104.729980 176.335938 Z " fill="rgb(0, 0, 0)" fill-opacity="1.000000" />
<path d="M 107.878906 182.319336 L 107.878906 176.335938 L 104.892578 176.335938 L 104.892578 175.412109 L 108.738281 175.412109 L 108.738281 182.319336 Z " fill="rgb(0, 0, 0)" fill-opacity="1.000000" />
<path d="M 128.878906 182.319336 L 128.878906 168.300781 L 129.738281 168.300781 L 129.738281 182.319336 Z " fill="rgb(0, 0, 0)" fill-opacity="1.000000" />
<path d="M 149.878906 182.319336 L 149.878906 175.412109 L 153.729980 175.412109 L 153.729980 176.335938 L 150.738281 176.335938 L 150.738281 182.319336 Z " fill="rgb(0, 0, 0)" fill-opacity="1.000000" />
<path d="M 153.892578 176.335938 L 153.892578 175.412109 L 160.729980 175.412109 L 160.729980 176.335938 Z " fill="rgb(0, 0, 0)" fill-opacity="1.000000" />
<path d="M 160.892578 176.335938 L 160.892578 175.412109 L 167.729980 175.412109 L 167.729980 176.335938 Z " fill="rgb(0, 0, 0)" fill-opacity="1.000000" />
<path d="M 167.892578 176.335938 L 167.892578 175.412109 L 174.729980 175.412109 L 174.729980 176.335938 Z " fill="rgb(0, 0, 0)" fill-opacity="1.000000" />
<path d="M 174.892578 176.335938 L 174.892578 175.412109 L 181.729980 175.412109 L 181.729980 176.335938 Z " fill="rgb(0, 0, 0)" fill-opacity="1.000000" />
<path d="M 181.892578 176.335938 L 181.892578 175.412109 L 188.729980 175.412109 L 188.729980 176.335938 Z " fill="rgb(0, 0, 0)" fill-opacity="1.000000" />
<path d="M 188.892578 176.335938 L 188.892578 175.412109 L 195.729980 175.412109 L 195.729980 176.335938 Z " fill="rgb(0, 0, 0)" fill-opacity="1.000000" />
<path d="M 195.892578 176.335938 L 195.892578 175.412109 L 202.729980 175.412109 L 202.729980 176.335938 Z " fill="rgb(0, 0, 0)" fill-opacity="1.000000" />
<path d="M 202.892578 176.335938 L 202.892578 175.412109 L 209.729980 175.412109 L 209.729980 176.335938 Z " fill="rgb(0, 0, 0)" fill-opacity="1.000000" />
<path d="M 209.892578 176.335938 L 209.892578 175.412109 L 216.729980 175.412109 L 216.729980 176.335938 Z " fill="rgb(0, 0, 0)" fill-opacity="1.000000" />
<path d="M 216.892578 176.335938 L 216.892578 175.412109 L 223.729980 175.412109 L 223.729980 176.335938 Z " fill="rgb(0, 0, 0)" fill-opacity="1.000000" />
<path d="M 223.892578 176.335938 L 223.892578 175.412109 L 230.729980 175.412109 L 230.729980 176.335938 Z " fill="rgb(0, 0, 0)" fill-opacity="1.000000" />
<path d="M 230.892578 176.335938 L 230.892578 175.412109 L 233.878906 175.412109 L 233.878906 168.300781 L 234.738281 168.300781 L 234.738281 176.335938 Z " fill="rgb(0, 0, 0)" fill-opacity="1.000000" />
<path d="M 128.878906 169.319336 L 128.878906 155.300781 L 129.738281 155.300781 L 129.738281 169.319336 Z " fill="rgb(0, 0, 0)" fill-opacity="1.000000" />
<path d="M 233.878906 169.319336 L 233.878906 155.300781 L 234.738281 155.300781 L 234.738281 169.319336 Z " fill="rgb(0, 0, 0)" fill-opacity="1.000000" />
<path d="M 6.892578 150.335938 L 6.892578 149.412109 L 13.729980 149.412109 L 13.729980 150.335938 Z " fill="rgb(0, 0, 0)" fill-opacity="1.000000" />
<path d="M 13.892578 150.335938 L 13.892578 149.412109 L 20.729980 149.412109 L 20.729980 150.335938 Z " fill="rgb(0, 0, 0)" fill-opacity="1.000000" />
<path d="M 20.892578 150.335938 L 20.892578 149.412109 L 27.729980 149.412109 L 27.729980 150.335938 Z " fill="rgb(0, 0, 0)" fill-opacity="1.000000" />
<path d="M 27.892578 150.335938 L 27.892578 149.412109 L 34.729980 149.412109 L 34.729980 150.335938 Z " fill="rgb(0, 0, 0)" fill-opacity="1.000000" />
<path d="M 34.892578 150.335938 L 34.892578 149.412109 L 41.729980 149.412109 L 41.729980 150.335938 Z " fill="rgb(0, 0, 0)" fill-opacity="1.000000" />
<path d="M 41.892578 150.335938 L 41.892578 149.412109 L 44.878906 149.412109 L 44.878906 142.300781 L 45.738281 142.300781 L 45.738281 150.335938 Z " fill="rgb(0, 0, 0)" fill-opacity="1.000000" />
<path d="M 100.878906 150.335938 L 100.878906 142.300781 L 101.738281 142.300781 L 101.738281 149.412109 L 104.729980 149.412109 L 104.729980 150.335938 Z " fill="rgb(0, 0, 0)" fill-opacity="1.000000" />
<path d="M 104.892578 150.335938 L 104.892578 149.412109 L 111.729980 149.412109 L 111.729980 150.335938 Z " fill="rgb(0, 0, 0)" fill-opacity="1.000000" />
<path d="M 111.892578 150.335938 L 111.892578 149.412109 L 118.729980 149.412109 L 118.729980 150.335938 Z " fill="rgb(0, 0, 0)" fill-opacity="1.000000" />
<path d="M 118.892578 150.335938 L 118.892578 149.412109 L 125.729980 149.412109 L 125.729980 150.335938 Z " fill="rgb(0, 0, 0)" fill-opacity="1.000000" />
<path d="M 125.892578 150.335938 L 125.892578 149.412109 L 132.729980 149.412109 L 132.729980 150.335938 Z " fill="rgb(0, 0, 0)" fill-opacity="1.000000" />
<path d="M 132.892578 150.335938 L 132.892578 149.412109 L 139.729980 149.412109 L 139.729980 150.335938 Z " fill="rgb(0, 0, 0)" fill-opacity="1.000000" />
<path d="M 139.892578 150.335938 L 139.892578 149.412109 L 146.729980 149.412109 L 146.729980 150.335938 Z " fill="rgb(0, 0, 0)" fill-opacity="1.000000" />
<path d="M 146.892578 150.335938 L 146.892578 149.412109 L 153.729980 149.412109 L 153.729980 150.335938 Z " fill="rgb(0, 0, 0)" fill-opacity="1.000000" />
<path d="M 153.892578 150.335938 L 153.892578 149.412109 L 156.878906 149.412109 L 156.878906 142.300781 L 157.738281 142.300781 L 157.738281 150.335938 Z " fill="rgb(0, 0, 0)" fill-opacity="1.000000" />
<path d="M 205.878906 150.335938 L 205.878906 142.300781 L 206.738281 142.300781 L 206.738281 149.412109 L 209.729980 149.412109 L 209.729980 150.335938 Z " fill="rgb(0, 0, 0)" fill-opacity="1.000000" />
<path d="M 209.892578 150.335938 L 209.892578 149.412109 L 216.729980 149.412109 L 216.729980 150.335938 Z " fill="rgb(0, 0, 0)" fill-opacity="1.000000" />
<path d="M 216.892578 150.335938 L 216.892578 149.412109 L 223.729980 149.412109 L 223.729980 150.335938 Z " fill="rgb(0, 0, 0)" fill-opacity="1.000000" />
<path d="M 223.892578 150.335938 L 223.892578 149.412109 L 230.729980 149.412109 L 230.729980 150.335938 Z " fill="rgb(0, 0, 0)" fill-opacity="1.000000" />
<path d="M 230.892578 150.335938 L 230.892578 149.412109 L 237.729980 149.412109 L 237.729980 150.335938 Z " fill="rgb(0, 0, 0)" fill-opacity="1.000000" />
<path d="M 237.892578 150.335938 L 237.892578 149.412109 L 244.729980 149.412109 L 244.729980 150.335938 Z " fill="rgb(0, 0, 0)" fill-opacity="1.000000" />
<path d="M 244.892578 150.335938 L 244.892578 149.412109 L 251.729980 149.412109 L 251.729980 150.335938 Z " fill="rgb(0, 0, 0)" fill-opacity="1.000000" />
<path d="M 251.892578 150.335938 L 251.892578 149.412109 L 258.729980 149.412109 L 258.729980 150.335938 Z " fill="rgb(0, 0, 0)" fill-opacity="1.000000" />
<path d="M 258.892578 150.335938 L 258.892578 149.412109 L 261.878906 149.412109 L 261.878906 142.300781 L 262.738281 142.300781 L 262.738281 150.335938 Z " fill="rgb(0, 0, 0)" fill-opacity="1.000000" />
<path d="M 10.297852 132.276367 L 10.297852 133.984375 L 12.542969 133.984375 L 12.542969 134.752441 L 10.297852 134.752441 L 10.297852 138.018066 Q 10.297852 138.684082 10.550293 138.947266 Q 10.802734 139.210449 11.431152 139.210449 L 12.542969 139.210449 L 12.542969 140.000000 L 11.334473 140.000000 Q 10.222656 140.000000 9.766113 139.554199 Q 9.309570 139.108398 9.309570 138.018066 L 9.309570 134.752441 L 7.703613 134.752441 L 7.703613 133.984375 L 9.309570 133.984375 L 9.309570 132.276367 Z " fill="rgb(0, 0, 0)" fill-opacity="1.000000" />
<path d="M 17.308594 131.862793 Q 18.592285 131.862793 19.250244 132.910156 Q 19.908203 133.957520 19.908203 136.009277 Q 19.908203 138.061035 19.250244 139.108398 Q 18.592285 140.155762 17.308594 140.155762 Q 16.024902 140.155762 15.369629 139.108398 Q 14.714355 138.061035 14.714355 136.009277 Q 14.714355 133.957520 15.369629 132.910156 Q 16.024902 131.862793 17.308594 131.862793 Z M 17.308594 139.296387 Q 18.071289 139.296387 18.444580 138.485352 Q 18.817871 137.674316 18.817871 136.009277 Q 18.817871 135.123047 18.710449 134.408691 L 16.153809 138.410156 Q 16.556641 139.296387 17.308594 139.296387 Z M 17.308594 132.722168 Q 16.551270 132.722168 16.177979 133.533203 Q 15.804688 134.344238 15.804688 136.009277 Q 15.804688 136.766602 15.906738 137.427246 L 18.409668 133.436523 Q 18.001465 132.722168 17.308594 132.722168 Z " fill="rgb(0, 0, 0)" fill-opacity="1.000000" />
<path d="M 26.075684 131.690918 L 26.075684 134.978027 L 24.872559 134.978027 L 24.872559 131.690918 Z M 23.212891 131.690918 L 23.212891 134.978027 L 22.009766 134.978027 L 22.009766 131.690918 Z " fill="rgb(0, 0, 0)" fill-opacity="1.000000" />
<path d="M 44.878906 143.319336 L 44.878906 129.300781 L 45.738281 129.300781 L 45.738281 143.319336 Z " fill="rgb(0, 0, 0)" fill-opacity="1.000000" />
<path d="M 100.878906 143.319336 L 100.878906 129.300781 L 101.738281 129.300781 L 101.738281 143.319336 Z " fill="rgb(0, 0, 0)" fill-opacity="1.000000" />
<path d="M 108.297852 132.276367 L 108.297852 133.984375 L 110.542969 133.984375 L 110.542969 134.752441 L 108.297852 134.752441 L 108.297852 138.018066 Q 108.297852 138.684082 108.550293 138.947266 Q 108.802734 139.210449 109.431152 139.210449 L 110.542969 139.210449 L 110.542969 140.000000 L 109.334473 140.000000 Q 108.222656 140.000000 107.766113 139.554199 Q 107.309570 139.108398 107.309570 138.018066 L 107.309570 134.752441 L 105.703613 134.752441 L 105.703613 133.984375 L 107.309570 133.984375 L 107.309570 132.276367 Z " fill="rgb(0, 0, 0)" fill-opacity="1.000000" />
<path d="M 115.308594 131.862793 Q 116.592285 131.862793 117.250244 132.910156 Q 117.908203 133.957520 117.908203 136.009277 Q 117.908203 138.061035 117.250244 139.108398 Q 116.592285 140.155762 115.308594 140.155762 Q 114.024902 140.155762 113.369629 139.108398 Q 112.714355 138.061035 112.714355 136.009277 Q 112.714355 133.957520 113.369629 132.910156 Q 114.024902 131.862793 115.308594 131.862793 Z M 115.308594 139.296387 Q 116.071289 139.296387 116.444580 138.485352 Q 116.817871 137.674316 116.817871 136.009277 Q 116.817871 135.123047 116.710449 134.408691 L 114.153809 138.410156 Q 114.556641 139.296387 115.308594 139.296387 Z M 115.308594 132.722168 Q 114.551270 132.722168 114.177979 133.533203 Q 113.804688 134.344238 113.804688 136.009277 Q 113.804688 136.766602 113.906738 137.427246 L 116.409668 133.436523 Q 116.001465 132.722168 115.308594 132.722168 Z " fill="rgb(0, 0, 0)" fill-opacity="1.000000" />
<path d="M 156.878906 143.319336 L 156.878906 129.300781 L 157.738281 129.300781 L 157.738281 143.319336 Z " fill="rgb(0, 0, 0)" fill-opacity="1.000000" />
<path d="M 205.878906 143.319336 L 205.878906 129.300781 L 206.738281 129.300781 L 206.738281 143.319336 Z " fill="rgb(0, 0, 0)" fill-opacity="1.000000" />
<path d="M 213.297852 132.276367 L 213.297852 133.984375 L 215.542969 133.984375 L 215.542969 134.752441 L 213.297852 134.752441 L 213.297852 138.018066 Q 213.297852 138.684082 213.550293 138.947266 Q 213.802734 139.210449 214.431152 139.210449 L 215.542969 139.210449 L 215.542969 140.000000 L 214.334473 140.000000 Q 213.222656 140.000000 212.766113 139.554199 Q 212.309570 139.108398 212.309570 138.018066 L 212.309570 134.752441 L 210.703613 134.752441 L 210.703613 133.984375 L 212.309570 133.984375 L 212.309570 132.276367 Z " fill="rgb(0, 0, 0)" fill-opacity="1.000000" />
<path d="M 220.308594 131.862793 Q 221.592285 131.862793 222.250244 132.910156 Q 222.908203 133.957520 222.908203 136.009277 Q 222.908203 138.061035 222.250244 139.108398 Q 221.592285 140.155762 220.308594 140.155762 Q 219.024902 140.155762 218.369629 139.108398 Q 217.714355 138.061035 217.714355 136.009277 Q 217.714355 133.957520 218.369629 132.910156 Q 219.024902 131.862793 220.308594 131.862793 Z M 220.308594 139.296387 Q 221.071289 139.296387 221.444580 138.485352 Q 221.817871 137.674316 221.817871 136.009277 Q 221.817871 135.123047 221.710449 134.408691 L 219.153809 138.410156 Q 219.556641 139.296387 220.308594 139.296387 Z M 220.308594 132.722168 Q 219.551270 132.722168 219.177979 133.533203 Q 218.804688 134.344238 218.804688 136.009277 Q 218.804688 136.766602 218.906738 137.427246 L 221.409668 133.436523 Q 221.001465 132.722168 220.308594 132.722168 Z " fill="rgb(0, 0, 0)" fill-opacity="1.000000" />
<path d="M 227.985352 131.631836 L 227.985352 134.978027 L 226.782227 134.978027 L 226.782227 131.631836 Z " fill="rgb(0, 0, 0)" fill-opacity="1.000000" />
<path d="M 261.878906 143.319336 L 261.878906 129.300781 L 262.738281 129.300781 L 262.738281 143.319336 Z " fill="rgb(0, 0, 0)" fill-opacity="1.000000" />
<path d="M 6.892578 124.335938 L 6.892578 123.412109 L 13.729980 123.412109 L 13.729980 124.335938 Z " fill="rgb(0, 0, 0)" fill-opacity="1.000000" />
<path d="M 13.892578 124.335938 L 13.892578 123.412109 L 20.729980 123.412109 L 20.729980 124.335938 Z " fill="rgb(0, 0, 0)" fill-opacity="1.000000" />
<path d="M 20.892578 124.335938 L 20.892578 123.412109 L 27.729980 123.412109 L 27.729980 124.335938 Z " fill="rgb(0, 0, 0)" fill-opacity="1.000000" />
<path d="M 27.892578 124.335938 L 27.892578 123.412109 L 34.729980 123.412109 L 34.729980 124.335938 Z " fill="rgb(0, 0, 0)" fill-opacity="1.000000" />
<path d="M 34.892578 124.335938 L 34.892578 123.412109 L 41.729980 123.412109 L 41.729980 124.335938 Z " fill="rgb(0, 0, 0)" fill-opacity="1.000000" />
<path d="M 44.878906 130.319336 L 44.878906 124.335938 L 41.892578 124.335938 L 41.892578 123.412109 L 45.738281 123.412109 L 45.738281 130.319336 Z " fill="rgb(0, 0, 0)" fill-opacity="1.000000" />
<path d="M 100.878906 130.319336 L 100.878906 123.412109 L 104.729980 123.412109 L 104.729980 124.335938 L 101.738281 124.335938 L 101.738281 130.319336 Z " fill="rgb(0, 0, 0)" fill-opacity="1.000000" />
<path d="M 104.892578 124.335938 L 104.892578 123.412109 L 111.729980 123.412109 L 111.729980 124.335938 Z " fill="rgb(0, 0, 0)" fill-opacity="1.000000" />
<path d="M 111.892578 124.335938 L 111.892578 123.412109 L 118.729980 123.412109 L 118.729980 124.335938 Z " fill="rgb(0, 0, 0)" fill-opacity="1.000000" />
<path d="M 118.892578 124.335938 L 118.892578 123.412109 L 125.729980 123.412109 L 125.729980 124.335938 Z " fill="rgb(0, 0, 0)" fill-opacity="1.000000" />
<path d="M 125.892578 124.335938 L 125.892578 123.412109 L 132.729980 123.412109 L 132.729980 124.335938 Z " fill="rgb(0, 0, 0)" fill-opacity="1.000000" />
<path d="M 132.892578 124.335938 L 132.892578 123.412109 L 139.729980 123.412109 L 139.729980 124.335938 Z " fill="rgb(0, 0, 0)" fill-opacity="1.000000" />
<path d="M 139.892578 124.335938 L 139.892578 123.412109 L 146.729980 123.412109 L 146.729980 124.335938 Z " fill="rgb(0, 0, 0)" fill-opacity="1.000000" />
<path d="M 146.892578 124.335938 L 146.892578 123.412109 L 153.729980 123.412109 L 153.729980 124.335938 Z " fill="rgb(0, 0, 0)" fill-opacity="1.000000" />
<path d="M 156.878906 130.319336 L 156.878906 124.335938 L 153.892578 124.335938 L 153.892578 123.412109 L 157.738281 123.412109 L 157.738281 130.319336 Z " fill="rgb(0, 0, 0)" fill-opacity="1.000000" />
<path d="M 205.878906 130.319336 L 205.878906 123.412109 L 209.729980 123.412109 L 209.729980 124.335938 L 206.738281 124.335938 L 206.738281 130.319336 Z " fill="rgb(0, 0, 0)" fill-opacity="1.000000" />
<path d="M 209.892578 124.335938 L 209.892578 123.412109 L 216.729980 123.412109 L 216.729980 124.335938 Z " fill="rgb(0, 0, 0)" fill-opacity="1.000000" />
<path d="M 216.892578 124.335938 L 216.892578 123.412109 L 223.729980 123.412109 L 223.729980 124.335938 Z " fill="rgb(0, 0, 0)" fill-opacity="1.000000" />
<path d="M 223.892578 124.335938 L 223.892578 123.412109 L 230.729980 123.412109 L 230.729980 124.335938 Z " fill="rgb(0, 0, 0)" fill-opacity="1.000000" />
<path d="M 230.892578 124.335938 L 230.892578 123.412109 L 237.729980 123.412109 L 237.729980 124.335938 Z " fill="rgb(0, 0, 0)" fill-opacity="1.000000" />
<path d="M 237.892578 124.335938 L 237.892578 123.412109 L 244.729980 123.412109 L 244.729980 124.335938 Z " fill="rgb(0, 0, 0)" fill-opacity="1.000000" />
<path d="M 244.892578 124.335938 L 244.892578 123.412109 L 251.729980 123.412109 L 251.729980 124.335938 Z " fill="rgb(0, 0, 0)" fill-opacity="1.000000" />
<path d="M 251.892578 124.335938 L 251.892578 123.412109 L 258.729980 123.412109 L 258.729980 124.335938 Z " fill="rgb(0, 0, 0)" fill-opacity="1.000000" />
<path d="M 261.878906 130.319336 L 261.878906 124.335938 L 258.892578 124.335938 L 258.892578 123.412109 L 262.738281 123.412109 L 262.738281 130.319336 Z " fill="rgb(0, 0, 0)" fill-opacity="1.000000" />
<path d="M 23.878906 78.319336 L 23.878906 71.412109 L 27.729980 71.412109 L 27.729980 72.335938 L 24.738281 72.335938 L 24.738281 78.319336 Z " fill="rgb(0, 0, 0)" fill-opacity="1.000000" />
<path d="M 23.878906 91.319336 L 23.878906 77.300781 L 24.738281 77.300781 L 24.738281 91.319336 Z " fill="rgb(0, 0, 0)" fill-opacity="1.000000" />
<path d="M 23.878906 104.319336 L 23.878906 90.300781 L 24.738281 90.300781 L 24.738281 104.319336 Z " fill="rgb(0, 0, 0)" fill-opacity="1.000000" />
<path d="M 24.308594 114.418945 L 21.032227 107.866211 L 27.590332 107.866211 Z " fill="rgb(0, 0, 0)" fill-opacity="1.000000" />
<path d="M 129.308594 114.418945 L 126.032227 107.866211 L 132.590332 107.866211 Z " fill="rgb(0, 0, 0)" fill-opacity="1.000000" />
<path d="M 234.308594 114.418945 L 231.032227 107.866211 L 237.590332 107.866211 Z " fill="rgb(0, 0, 0)" fill-opacity="1.000000" />
<path d="M 128.878906 91.319336 L 128.878906 77.300781 L 129.738281 77.300781 L 129.738281 91.319336 Z " fill="rgb(0, 0, 0)" fill-opacity="1.000000" />
<path d="M 128.878906 104.319336 L 128.878906 90.300781 L 129.738281 90.300781 L 129.738281 104.319336 Z " fill="rgb(0, 0, 0)" fill-opacity="1.000000" />
<path d="M 233.878906 91.319336 L 233.878906 77.300781 L 234.738281 77.300781 L 234.738281 91.319336 Z " fill="rgb(0, 0, 0)" fill-opacity="1.000000" />
<path d="M 233.878906 104.319336 L 233.878906 90.300781 L 234.738281 90.300781 L 234.738281 104.319336 Z " fill="rgb(0, 0, 0)" fill-opacity="1.000000" />
<path d="M 27.892578 72.335938 L 27.892578 71.412109 L 34.729980 71.412109 L 34.729980 72.335938 Z " fill="rgb(0, 0, 0)" fill-opacity="1.000000" />
<path d="M 34.892578 72.335938 L 34.892578 71.412109 L 41.729980 71.412109 L 41.729980 72.335938 Z " fill="rgb(0, 0, 0)" fill-opacity="1.000000" />
<path d="M 41.892578 72.335938 L 41.892578 71.412109 L 48.729980 71.412109 L 48.729980 72.335938 Z " fill="rgb(0, 0, 0)" fill-opacity="1.000000" />
<path d="M 48.892578 72.335938 L 48.892578 71.412109 L 55.729980 71.412109 L 55.729980 72.335938 Z " fill="rgb(0, 0, 0)" fill-opacity="1.000000" />
<path d="M 55.892578 72.335938 L 55.892578 71.412109 L 62.729980 71.412109 L 62.729980 72.335938 Z " fill="rgb(0, 0, 0)" fill-opacity="1.000000" />
<path d="M 62.892578 72.335938 L 62.892578 71.412109 L 69.729980 71.412109 L 69.729980 72.335938 Z " fill="rgb(0, 0, 0)" fill-opacity="1.000000" />
<path d="M 69.892578 72.335938 L 69.892578 71.412109 L 76.729980 71.412109 L 76.729980 72.335938 Z " fill="rgb(0, 0, 0)" fill-opacity="1.000000" />
<path d="M 76.892578 72.335938 L 76.892578 71.412109 L 83.729980 71.412109 L 83.729980 72.335938 Z " fill="rgb(0, 0, 0)" fill-opacity="1.000000" />
<path d="M 83.892578 72.335938 L 83.892578 71.412109 L 90.729980 71.412109 L 90.729980 72.335938 Z " fill="rgb(0, 0, 0)" fill-opacity="1.000000" />
<path d="M 90.892578 72.335938 L 90.892578 71.412109 L 97.729980 71.412109 L 97.729980 72.335938 Z " fill="rgb(0, 0, 0)" fill-opacity="1.000000" />
<path d="M 97.892578 72.335938 L 97.892578 71.412109 L 104.729980 71.412109 L 104.729980 72.335938 Z " fill="rgb(0, 0, 0)" fill-opacity="1.000000" />
<path d="M 104.892578 72.335938 L 104.892578 71.412109 L 111.729980 71.412109 L 111.729980 72.335938 Z " fill="rgb(0, 0, 0)" fill-opacity="1.000000" />
<path d="M 111.892578 72.335938 L 111.892578 71.412109 L 118.729980 71.412109 L 118.729980 72.335938 Z " fill="rgb(0, 0, 0)" fill-opacity="1.000000" />
<path d="M 118.892578 72.335938 L 118.892578 71.412109 L 125.729980 71.412109 L 125.729980 72.335938 Z " fill="rgb(0, 0, 0)" fill-opacity="1.000000" />
<path d="M 128.878906 78.319336 L 128.878906 72.335938 L 125.892578 72.335938 L 125.892578 71.412109 L 132.729980 71.412109 L 132.729980 72.335938 L 129.738281 72.335938 L 129.738281 78.319336 Z " fill="rgb(0, 0, 0)" fill-opacity="1.000000" />
<path d="M 132.892578 72.335938 L 132.892578 71.412109 L 139.729980 71.412109 L 139.729980 72.335938 Z " fill="rgb(0, 0, 0)" fill-opacity="1.000000" />
<path d="M 139.892578 72.335938 L 139.892578 71.412109 L 142.878906 71.412109 L 142.878906 64.300781 L 143.738281 64.300781 L 143.738281 71.412109 L 146.729980 71.412109 L 146.729980 72.335938 Z " fill="rgb(0, 0, 0)" fill-opacity="1.000000" />
<path d="M 146.892578 72.335938 L 146.892578 71.412109 L 153.729980 71.412109 L 153.729980 72.335938 Z " fill="rgb(0, 0, 0)" fill-opacity="1.000000" />
<path d="M 153.892578 72.335938 L 153.892578 71.412109 L 160.729980 71.412109 L 160.729980 72.335938 Z " fill="rgb(0, 0, 0)" fill-opacity="1.000000" />
<path d="M 160.892578 72.335938 L 160.892578 71.412109 L 167.729980 71.412109 L 167.729980 72.335938 Z " fill="rgb(0, 0, 0)" fill-opacity="1.000000" />
<path d="M 167.892578 72.335938 L 167.892578 71.412109 L 174.729980 71.412109 L 174.729980 72.335938 Z " fill="rgb(0, 0, 0)" fill-opacity="1.000000" />
<path d="M 174.892578 72.335938 L 174.892578 71.412109 L 181.729980 71.412109 L 181.729980 72.335938 Z " fill="rgb(0, 0, 0)" fill-opacity="1.000000" />
<path d="M 181.892578 72.335938 L 181.892578 71.412109 L 188.729980 71.412109 L 188.729980 72.335938 Z " fill="rgb(0, 0, 0)" fill-opacity="1.000000" />
<path d="M 188.892578 72.335938 L 188.892578 71.412109 L 195.729980 71.412109 L 195.729980 72.335938 Z " fill="rgb(0, 0, 0)" fill-opacity="1.000000" />
<path d="M 195.892578 72.335938 L 195.892578 71.412109 L 202.729980 71.412109 L 202.729980 72.335938 Z " fill="rgb(0, 0, 0)" fill-opacity="1.000000" />
<path d="M 202.892578 72.335938 L 202.892578 71.412109 L 209.729980 71.412109 L 209.729980 72.335938 Z " fill="rgb(0, 0, 0)" fill-opacity="1.000000" />
<path d="M 209.892578 72.335938 L 209.892578 71.412109 L 216.729980 71.412109 L 216.729980 72.335938 Z " fill="rgb(0, 0, 0)" fill-opacity="1.000000" />
<path d="M 216.892578 72.335938 L 216.892578 71.412109 L 223.729980 71.412109 L 223.729980 72.335938 Z " fill="rgb(0, 0, 0)" fill-opacity="1.000000" />
<path d="M 223.892578 72.335938 L 223.892578 71.412109 L 230.729980 71.412109 L 230.729980 72.335938 Z " fill="rgb(0, 0, 0)" fill-opacity="1.000000" />
<path d="M 233.878906 78.319336 L 233.878906 72.335938 L 230.892578 72.335938 L 230.892578 71.412109 L 234.738281 71.412109 L 234.738281 78.319336 Z " fill="rgb(0, 0, 0)" fill-opacity="1.000000" />
<path d="M 93.878906 13.319336 L 93.878906 6.412109 L 97.729980 6.412109 L 97.729980 7.335938 L 94.738281 7.335938 L 94.738281 13.319336 Z " fill="rgb(0, 0, 0)" fill-opacity="1.000000" />
<path d="M 93.878906 26.319336 L 93.878906 12.300781 L 94.738281 12.300781 L 94.738281 26.319336 Z " fill="rgb(0, 0, 0)" fill-opacity="1.000000" />
<path d="M 93.878906 33.335938 L 93.878906 25.300781 L 94.738281 25.300781 L 94.738281 32.412109 L 97.729980 32.412109 L 97.729980 33.335938 Z " fill="rgb(0, 0, 0)" fill-opacity="1.000000" />
<path d="M 142.878906 52.319336 L 142.878906 38.300781 L 143.738281 38.300781 L 143.738281 52.319336 Z " fill="rgb(0, 0, 0)" fill-opacity="1.000000" />
<path d="M 142.878906 65.319336 L 142.878906 51.300781 L 143.738281 51.300781 L 143.738281 65.319336 Z " fill="rgb(0, 0, 0)" fill-opacity="1.000000" />
<path d="M 213.308594 56.677246 Q 212.556641 56.677246 212.169922 57.262695 Q 211.783203 57.848145 211.783203 58.997559 Q 211.783203 60.141602 212.169922 60.729736 Q 212.556641 61.317871 213.308594 61.317871 Q 214.065918 61.317871 214.452637 60.729736 Q 214.839355 60.141602 214.839355 58.997559 Q 214.839355 57.848145 214.452637 57.262695 Q 214.065918 56.677246 213.308594 56.677246 Z M 213.308594 55.839355 Q 214.560059 55.839355 215.223389 56.650391 Q 215.886719 57.461426 215.886719 58.997559 Q 215.886719 60.539062 215.226074 61.347412 Q 214.565430 62.155762 213.308594 62.155762 Q 212.057129 62.155762 211.396484 61.347412 Q 210.735840 60.539062 210.735840 58.997559 Q 210.735840 57.461426 211.396484 56.650391 Q 212.057129 55.839355 213.308594 55.839355 Z " fill="rgb(0, 0, 0)" fill-opacity="1.000000" />
<path d="M 222.645020 58.272461 L 222.645020 62.000000 L 221.651367 62.000000 L 221.651367 58.272461 Q 221.651367 57.461426 221.366699 57.080078 Q 221.082031 56.698730 220.475098 56.698730 Q 219.782227 56.698730 219.408936 57.190186 Q 219.035645 57.681641 219.035645 58.600098 L 219.035645 62.000000 L 218.047363 62.000000 L 218.047363 55.984375 L 219.035645 55.984375 L 219.035645 56.886719 Q 219.298828 56.371094 219.750000 56.105225 Q 220.201172 55.839355 220.818848 55.839355 Q 221.737305 55.839355 222.191162 56.443604 Q 222.645020 57.047852 222.645020 58.272461 Z " fill="rgb(0, 0, 0)" fill-opacity="1.000000" />
<path d="M 230.015625 58.498047 L 230.015625 58.981445 L 225.734863 58.981445 L 225.734863 59.013672 Q 225.691895 60.243652 226.204834 60.780762 Q 226.717773 61.317871 227.652344 61.317871 Q 228.125000 61.317871 228.640625 61.167480 Q 229.156250 61.017090 229.741699 60.710938 L 229.741699 61.693848 Q 229.177734 61.924805 228.654053 62.040283 Q 228.130371 62.155762 227.641602 62.155762 Q 226.239746 62.155762 225.450195 61.315186 Q 224.660645 60.474609 224.660645 58.997559 Q 224.660645 57.558105 225.434082 56.698730 Q 226.207520 55.839355 227.496582 55.839355 Q 228.645996 55.839355 229.309326 56.618164 Q 229.972656 57.396973 230.015625 58.498047 Z M 229.027344 58.208008 Q 228.962891 57.584961 228.573486 57.131104 Q 228.184082 56.677246 227.453613 56.677246 Q 226.739258 56.677246 226.277344 57.149902 Q 225.815430 57.622559 225.772461 58.213379 Z " fill="rgb(0, 0, 0)" fill-opacity="1.000000" />
<path d="M 241.297852 54.276367 L 241.297852 55.984375 L 243.542969 55.984375 L 243.542969 56.752441 L 241.297852 56.752441 L 241.297852 60.018066 Q 241.297852 60.684082 241.550293 60.947266 Q 241.802734 61.210449 242.431152 61.210449 L 243.542969 61.210449 L 243.542969 62.000000 L 242.334473 62.000000 Q 241.222656 62.000000 240.766113 61.554199 Q 240.309570 61.108398 240.309570 60.018066 L 240.309570 56.752441 L 238.703613 56.752441 L 238.703613 55.984375 L 240.309570 55.984375 L 240.309570 54.276367 Z " fill="rgb(0, 0, 0)" fill-opacity="1.000000" />
<path d="M 248.308594 56.677246 Q 247.556641 56.677246 247.169922 57.262695 Q 246.783203 57.848145 246.783203 58.997559 Q 246.783203 60.141602 247.169922 60.729736 Q 247.556641 61.317871 248.308594 61.317871 Q 249.065918 61.317871 249.452637 60.729736 Q 249.839355 60.141602 249.839355 58.997559 Q 249.839355 57.848145 249.452637 57.262695 Q 249.065918 56.677246 248.308594 56.677246 Z M 248.308594 55.839355 Q 249.560059 55.839355 250.223389 56.650391 Q 250.886719 57.461426 250.886719 58.997559 Q 250.886719 60.539062 250.226074 61.347412 Q 249.565430 62.155762 248.308594 62.155762 Q 247.057129 62.155762 246.396484 61.347412 Q 245.735840 60.539062 245.735840 58.997559 Q 245.735840 57.461426 246.396484 56.650391 Q 247.057129 55.839355 248.308594 55.839355 Z " fill="rgb(0, 0, 0)" fill-opacity="1.000000" />
<path d="M 262.630859 56.596680 Q 262.813477 56.209961 263.095459 56.024658 Q 263.377441 55.839355 263.774902 55.839355 Q 264.500000 55.839355 264.798096 56.400635 Q 265.096191 56.961914 265.096191 58.514160 L 265.096191 62.000000 L 264.193848 62.000000 L 264.193848 58.557129 Q 264.193848 57.284180 264.051514 56.975342 Q 263.909180 56.666504 263.533203 56.666504 Q 263.103516 56.666504 262.945068 56.996826 Q 262.786621 57.327148 262.786621 58.557129 L 262.786621 62.000000 L 261.884277 62.000000 L 261.884277 58.557129 Q 261.884277 57.268066 261.731201 56.967285 Q 261.578125 56.666504 261.180664 56.666504 Q 260.788574 56.666504 260.635498 56.996826 Q 260.482422 57.327148 260.482422 58.557129 L 260.482422 62.000000 L 259.585449 62.000000 L 259.585449 55.984375 L 260.482422 55.984375 L 260.482422 56.500000 Q 260.659668 56.177734 260.925537 56.008545 Q 261.191406 55.839355 261.529785 55.839355 Q 261.937988 55.839355 262.209229 56.027344 Q 262.480469 56.215332 262.630859 56.596680 Z " fill="rgb(0, 0, 0)" fill-opacity="1.000000" />
<path d="M 269.770508 58.976074 L 269.442871 58.976074 Q 268.578125 58.976074 268.140381 59.279541 Q 267.702637 59.583008 267.702637 60.184570 Q 267.702637 60.727051 268.030273 61.027832 Q 268.357910 61.328613 268.937988 61.328613 Q 269.754395 61.328613 270.221680 60.761963 Q 270.688965 60.195312 270.694336 59.196289 L 270.694336 58.976074 Z M 271.687988 58.567871 L 271.687988 62.000000 L 270.694336 62.000000 L 270.694336 61.108398 Q 270.377441 61.645508 269.896729 61.900635 Q 269.416016 62.155762 268.728516 62.155762 Q 267.810059 62.155762 267.262207 61.637451 Q 266.714355 61.119141 266.714355 60.249023 Q 266.714355 59.244629 267.388428 58.723633 Q 268.062500 58.202637 269.367676 58.202637 L 270.694336 58.202637 L 270.694336 58.046875 Q 270.688965 57.327148 270.329102 57.002197 Q 269.969238 56.677246 269.179688 56.677246 Q 268.674805 56.677246 268.159180 56.822266 Q 267.643555 56.967285 267.154785 57.246582 L 267.154785 56.258301 Q 267.702637 56.048828 268.204834 55.944092 Q 268.707031 55.839355 269.179688 55.839355 Q 269.926270 55.839355 270.455322 56.059570 Q 270.984375 56.279785 271.312012 56.720215 Q 271.516113 56.988770 271.602051 57.383545 Q 271.687988 57.778320 271.687988 58.567871 Z " fill="rgb(0, 0, 0)" fill-opacity="1.000000" />
<path d="M 278.645020 58.272461 L 278.645020 62.000000 L 277.651367 62.000000 L 277.651367 58.272461 Q 277.651367 57.461426 277.366699 57.080078 Q 277.082031 56.698730 276.475098 56.698730 Q 275.782227 56.698730 275.408936 57.190186 Q 275.035645 57.681641 275.035645 58.600098 L 275.035645 62.000000 L 274.047363 62.000000 L 274.047363 55.984375 L 275.035645 55.984375 L 275.035645 56.886719 Q 275.298828 56.371094 275.750000 56.105225 Q 276.201172 55.839355 276.818848 55.839355 Q 277.737305 55.839355 278.191162 56.443604 Q 278.645020 57.047852 278.645020 58.272461 Z " fill="rgb(0, 0, 0)" fill-opacity="1.000000" />
<path d="M 284.608398 60.066406 Q 284.361328 60.694824 283.979980 61.720703 Q 283.448242 63.138672 283.265625 63.450195 Q 283.018555 63.869141 282.647949 64.078613 Q 282.277344 64.288086 281.783203 64.288086 L 280.988281 64.288086 L 280.988281 63.460938 L 281.573730 63.460938 Q 282.008789 63.460938 282.255859 63.208496 Q 282.502930 62.956055 282.884277 61.903320 L 280.558594 55.984375 L 281.605957 55.984375 L 283.389160 60.689453 L 285.145508 55.984375 L 286.192871 55.984375 Z " fill="rgb(0, 0, 0)" fill-opacity="1.000000" />
<path d="M 97.892578 33.335938 L 97.892578 32.412109 L 104.729980 32.412109 L 104.729980 33.335938 Z " fill="rgb(0, 0, 0)" fill-opacity="1.000000" />
<path d="M 104.892578 33.335938 L 104.892578 32.412109 L 111.729980 32.412109 L 111.729980 33.335938 Z " fill="rgb(0, 0, 0)" fill-opacity="1.000000" />
<path d="M 111.892578 33.335938 L 111.892578 32.412109 L 118.729980 32.412109 L 118.729980 33.335938 Z " fill="rgb(0, 0, 0)" fill-opacity="1.000000" />
<path d="M 118.892578 33.335938 L 118.892578 32.412109 L 125.729980 32.412109 L 125.729980 33.335938 Z " fill="rgb(0, 0, 0)" fill-opacity="1.000000" />
<path d="M 125.892578 33.335938 L 125.892578 32.412109 L 132.729980 32.412109 L 132.729980 33.335938 Z " fill="rgb(0, 0, 0)" fill-opacity="1.000000" />
<path d="M 132.892578 33.335938 L 132.892578 32.412109 L 139.729980 32.412109 L 139.729980 33.335938 Z " fill="rgb(0, 0, 0)" fill-opacity="1.000000" />
<path d="M 139.892578 33.335938 L 139.892578 32.412109 L 146.729980 32.412109 L 146.729980 33.335938 Z " fill="rgb(0, 0, 0)" fill-opacity="1.000000" />
<path d="M 146.892578 33.335938 L 146.892578 32.412109 L 153.729980 32.412109 L 153.729980 33.335938 Z " fill="rgb(0, 0, 0)" fill-opacity="1.000000" />
<path d="M 153.892578 33.335938 L 153.892578 32.412109 L 160.729980 32.412109 L 160.729980 33.335938 Z " fill="rgb(0, 0, 0)" fill-opacity="1.000000" />
<path d="M 160.892578 33.335938 L 160.892578 32.412109 L 167.729980 32.412109 L 167.729980 33.335938 Z " fill="rgb(0, 0, 0)" fill-opacity="1.000000" />
<path d="M 167.892578 33.335938 L 167.892578 32.412109 L 174.729980 32.412109 L 174.729980 33.335938 Z " fill="rgb(0, 0, 0)" fill-opacity="1.000000" />
<path d="M 174.892578 33.335938 L 174.892578 32.412109 L 181.729980 32.412109 L 181.729980 33.335938 Z " fill="rgb(0, 0, 0)" fill-opacity="1.000000" />
<path d="M 181.892578 33.335938 L 181.892578 32.412109 L 188.729980 32.412109 L 188.729980 33.335938 Z " fill="rgb(0, 0, 0)" fill-opacity="1.000000" />
<path d="M 188.892578 33.335938 L 188.892578 32.412109 L 191.878906 32.412109 L 191.878906 25.300781 L 192.738281 25.300781 L 192.738281 33.335938 Z " fill="rgb(0, 0, 0)" fill-opacity="1.000000" />
<path d="M 117.698730 22.693848 Q 117.301270 22.924805 116.879639 23.040283 Q 116.458008 23.155762 116.017578 23.155762 Q 114.621094 23.155762 113.834229 22.317871 Q 113.047363 21.479980 113.047363 19.997559 Q 113.047363 18.515137 113.834229 17.677246 Q 114.621094 16.839355 116.017578 16.839355 Q 116.452637 16.839355 116.866211 16.952148 Q 117.279785 17.064941 117.698730 17.301270 L 117.698730 18.337891 Q 117.306641 17.988770 116.911865 17.833008 Q 116.517090 17.677246 116.017578 17.677246 Q 115.088379 17.677246 114.588867 18.278809 Q 114.089355 18.880371 114.089355 19.997559 Q 114.089355 21.109375 114.591553 21.713623 Q 115.093750 22.317871 116.017578 22.317871 Q 116.533203 22.317871 116.941406 22.159424 Q 117.349609 22.000977 117.698730 21.667969 Z " fill="rgb(0, 0, 0)" fill-opacity="1.000000" />
<path d="M 122.308594 17.677246 Q 121.556641 17.677246 121.169922 18.262695 Q 120.783203 18.848145 120.783203 19.997559 Q 120.783203 21.141602 121.169922 21.729736 Q 121.556641 22.317871 122.308594 22.317871 Q 123.065918 22.317871 123.452637 21.729736 Q 123.839355 21.141602 123.839355 19.997559 Q 123.839355 18.848145 123.452637 18.262695 Q 123.065918 17.677246 122.308594 17.677246 Z M 122.308594 16.839355 Q 123.560059 16.839355 124.223389 17.650391 Q 124.886719 18.461426 124.886719 19.997559 Q 124.886719 21.539062 124.226074 22.347412 Q 123.565430 23.155762 122.308594 23.155762 Q 121.057129 23.155762 120.396484 22.347412 Q 119.735840 21.539062 119.735840 19.997559 Q 119.735840 18.461426 120.396484 17.650391 Q 121.057129 16.839355 122.308594 16.839355 Z " fill="rgb(0, 0, 0)" fill-opacity="1.000000" />
<path d="M 131.645020 19.272461 L 131.645020 23.000000 L 130.651367 23.000000 L 130.651367 19.272461 Q 130.651367 18.461426 130.366699 18.080078 Q 130.082031 17.698730 129.475098 17.698730 Q 128.782227 17.698730 128.408936 18.190186 Q 128.035645 18.681641 128.035645 19.600098 L 128.035645 23.000000 L 127.047363 23.000000 L 127.047363 16.984375 L 128.035645 16.984375 L 128.035645 17.886719 Q 128.298828 17.371094 128.750000 17.105225 Q 129.201172 16.839355 129.818848 16.839355 Q 130.737305 16.839355 131.191162 17.443604 Q 131.645020 18.047852 131.645020 19.272461 Z " fill="rgb(0, 0, 0)" fill-opacity="1.000000" />
<path d="M 137.608398 17.752441 L 137.608398 14.642578 L 138.596680 14.642578 L 138.596680 23.000000 L 137.608398 23.000000 L 137.608398 22.242676 Q 137.361328 22.688477 136.950439 22.922119 Q 136.539551 23.155762 136.002441 23.155762 Q 134.912109 23.155762 134.286377 22.309814 Q 133.660645 21.463867 133.660645 19.976074 Q 133.660645 18.509766 134.289062 17.674561 Q 134.917480 16.839355 136.002441 16.839355 Q 136.544922 16.839355 136.958496 17.072998 Q 137.372070 17.306641 137.608398 17.752441 Z M 134.702637 19.997559 Q 134.702637 21.146973 135.067871 21.732422 Q 135.433105 22.317871 136.147461 22.317871 Q 136.861816 22.317871 137.235107 21.727051 Q 137.608398 21.136230 137.608398 19.997559 Q 137.608398 18.853516 137.235107 18.265381 Q 136.861816 17.677246 136.147461 17.677246 Q 135.433105 17.677246 135.067871 18.262695 Q 134.702637 18.848145 134.702637 19.997559 Z " fill="rgb(0, 0, 0)" fill-opacity="1.000000" />
<path d="M 141.047363 20.722656 L 141.047363 16.995117 L 142.035645 16.995117 L 142.035645 20.722656 Q 142.035645 21.533691 142.322998 21.915039 Q 142.610352 22.296387 143.211914 22.296387 Q 143.910156 22.296387 144.280762 21.804932 Q 144.651367 21.313477 144.651367 20.395020 L 144.651367 16.995117 L 145.645020 16.995117 L 145.645020 23.000000 L 144.651367 23.000000 L 144.651367 22.097656 Q 144.388184 22.618652 143.934326 22.887207 Q 143.480469 23.155762 142.873535 23.155762 Q 141.949707 23.155762 141.498535 22.551514 Q 141.047363 21.947266 141.047363 20.722656 Z " fill="rgb(0, 0, 0)" fill-opacity="1.000000" />
<path d="M 152.698730 22.693848 Q 152.301270 22.924805 151.879639 23.040283 Q 151.458008 23.155762 151.017578 23.155762 Q 149.621094 23.155762 148.834229 22.317871 Q 148.047363 21.479980 148.047363 19.997559 Q 148.047363 18.515137 148.834229 17.677246 Q 149.621094 16.839355 151.017578 16.839355 Q 151.452637 16.839355 151.866211 16.952148 Q 152.279785 17.064941 152.698730 17.301270 L 152.698730 18.337891 Q 152.306641 17.988770 151.911865 17.833008 Q 151.517090 17.677246 151.017578 17.677246 Q 150.088379 17.677246 149.588867 18.278809 Q 149.089355 18.880371 149.089355 19.997559 Q 149.089355 21.109375 149.591553 21.713623 Q 150.093750 22.317871 151.017578 22.317871 Q 151.533203 22.317871 151.941406 22.159424 Q 152.349609 22.000977 152.698730 21.667969 Z " fill="rgb(0, 0, 0)" fill-opacity="1.000000" />
<path d="M 157.297852 15.276367 L 157.297852 16.984375 L 159.542969 16.984375 L 159.542969 17.752441 L 157.297852 17.752441 L 157.297852 21.018066 Q 157.297852 21.684082 157.550293 21.947266 Q 157.802734 22.210449 158.431152 22.210449 L 159.542969 22.210449 L 159.542969 23.000000 L 158.334473 23.000000 Q 157.222656 23.000000 156.766113 22.554199 Q 156.309570 22.108398 156.309570 21.018066 L 156.309570 17.752441 L 154.703613 17.752441 L 154.703613 16.984375 L 156.309570 16.984375 L 156.309570 15.276367 Z " fill="rgb(0, 0, 0)" fill-opacity="1.000000" />
<path d="M 164.308594 17.677246 Q 163.556641 17.677246 163.169922 18.262695 Q 162.783203 18.848145 162.783203 19.997559 Q 162.783203 21.141602 163.169922 21.729736 Q 163.556641 22.317871 164.308594 22.317871 Q 165.065918 22.317871 165.452637 21.729736 Q 165.839355 21.141602 165.839355 19.997559 Q 165.839355 18.848145 165.452637 18.262695 Q 165.065918 17.677246 164.308594 17.677246 Z M 164.308594 16.839355 Q 165.560059 16.839355 166.223389 17.650391 Q 166.886719 18.461426 166.886719 19.997559 Q 166.886719 21.539062 166.226074 22.347412 Q 165.565430 23.155762 164.308594 23.155762 Q 163.057129 23.155762 162.396484 22.347412 Q 161.735840 21.539062 161.735840 19.997559 Q 161.735840 18.461426 162.396484 17.650391 Q 163.057129 16.839355 164.308594 16.839355 Z " fill="rgb(0, 0, 0)" fill-opacity="1.000000" />
<path d="M 174.203613 18.225098 Q 173.886719 17.978027 173.559082 17.865234 Q 173.231445 17.752441 172.839355 17.752441 Q 171.915527 17.752441 171.426758 18.332520 Q 170.937988 18.912598 170.937988 20.008301 L 170.937988 23.000000 L 169.944336 23.000000 L 169.944336 16.984375 L 170.937988 16.984375 L 170.937988 18.160645 Q 171.185059 17.521484 171.697998 17.180420 Q 172.210938 16.839355 172.914551 16.839355 Q 173.279785 16.839355 173.596680 16.930664 Q 173.913574 17.021973 174.203613 17.215332 Z " fill="rgb(0, 0, 0)" fill-opacity="1.000000" />
<path d="M 191.878906 26.319336 L 191.878906 12.300781 L 192.738281 12.300781 L 192.738281 26.319336 Z " fill="rgb(0, 0, 0)" fill-opacity="1.000000" />
<path d="M 97.892578 7.335938 L 97.892578 6.412109 L 104.729980 6.412109 L 104.729980 7.335938 Z " fill="rgb(0, 0, 0)" fill-opacity="1.000000" />
<path d="M 104.892578 7.335938 L 104.892578 6.412109 L 111.729980 6.412109 L 111.729980 7.335938 Z " fill="rgb(0, 0, 0)" fill-opacity="1.000000" />
<path d="M 111.892578 7.335938 L 111.892578 6.412109 L 118.729980 6.412109 L 118.729980 7.335938 Z " fill="rgb(0, 0, 0)" fill-opacity="1.000000" />
<path d="M 118.892578 7.335938 L 118.892578 6.412109 L 125.729980 6.412109 L 125.729980 7.335938 Z " fill="rgb(0, 0, 0)" fill-opacity="1.000000" />
<path d="M 125.892578 7.335938 L 125.892578 6.412109 L 132.729980 6.412109 L 132.729980 7.335938 Z " fill="rgb(0, 0, 0)" fill-opacity="1.000000" />
<path d="M 132.892578 7.335938 L 132.892578 6.412109 L 139.729980 6.412109 L 139.729980 7.335938 Z " fill="rgb(0, 0, 0)" fill-opacity="1.000000" />
<path d="M 139.892578 7.335938 L 139.892578 6.412109 L 146.729980 6.412109 L 146.729980 7.335938 Z " fill="rgb(0, 0, 0)" fill-opacity="1.000000" />
<path d="M 146.892578 7.335938 L 146.892578 6.412109 L 153.729980 6.412109 L 153.729980 7.335938 Z " fill="rgb(0, 0, 0)" fill-opacity="1.000000" />
<path d="M 153.892578 7.335938 L 153.892578 6.412109 L 160.729980 6.412109 L 160.729980 7.335938 Z " fill="rgb(0, 0, 0)" fill-opacity="1.000000" />
<path d="M 160.892578 7.335938 L 160.892578 6.412109 L 167.729980 6.412109 L 167.729980 7.335938 Z " fill="rgb(0, 0, 0)" fill-opacity="1.000000" />
<path d="M 167.892578 7.335938 L 167.892578 6.412109 L 174.729980 6.412109 L 174.729980 7.335938 Z " fill="rgb(0, 0, 0)" fill-opacity="1.000000" />
<path d="M 174.892578 7.335938 L 174.892578 6.412109 L 181.729980 6.412109 L 181.729980 7.335938 Z " fill="rgb(0, 0, 0)" fill-opacity="1.000000" />
<path d="M 181.892578 7.335938 L 181.892578 6.412109 L 188.729980 6.412109 L 188.729980 7.335938 Z " fill="rgb(0, 0, 0)" fill-opacity="1.000000" />
<path d="M 191.878906 13.319336 L 191.878906 7.335938 L 188.892578 7.335938 L 188.892578 6.412109 L 192.738281 6.412109 L 192.738281 13.319336 Z " fill="rgb(0, 0, 0)" fill-opacity="1.000000" />
</svg>